<svg width="17" height="16" viewBox="0 0 17 16" fill="none" xmlns="http://www.w3.org/2000/svg">
<path d="M11.5 0C14.261 0 16.5 2.239 16.5 5V11C16.5 13.761 14.261 16 11.5 16H5.5C2.739 16 0.5 13.761 0.5 11V5C0.5 2.239 2.739 0 5.5 0H11.5ZM5.5 1.5C3.57 1.5 2 3.07 2 5V11C2 12.93 3.57 14.5 5.5 14.5H11.5C13.43 14.5 15 12.93 15 11V5C15 3.07 13.43 1.5 11.5 1.5H5.5ZM8.5 4C10.709 4 12.5 5.791 12.5 8C12.5 10.209 10.709 12 8.5 12C6.291 12 4.5 10.209 4.5 8C4.5 5.791 6.291 4 8.5 4ZM8.5 5.5C7.122 5.5 6 6.621 6 8C6 9.378 7.122 10.5 8.5 10.5C9.878 10.5 11 9.378 11 8C11 6.621 9.878 5.5 8.5 5.5ZM12.7998 3.16699C13.0942 3.16699 13.333 3.40583 13.333 3.7002C13.3329 3.99448 13.0941 4.2334 12.7998 4.2334C12.5056 4.23327 12.2667 3.9944 12.2666 3.7002C12.2666 3.4059 12.5055 3.16712 12.7998 3.16699Z" fill="#B0B8BC"/>
</svg>
