<svg width="17" height="16" viewBox="0 0 17 16" fill="none" xmlns="http://www.w3.org/2000/svg">
<path d="M16.5 2.87225C15.905 3.13325 15.271 3.30625 14.61 3.39025C15.29 2.98425 15.809 2.34625 16.053 1.57725C15.419 1.95525 14.719 2.22225 13.973 2.37125C13.371 1.73025 12.513 1.33325 11.577 1.33325C9.761 1.33325 8.299 2.80725 8.299 4.61425C8.299 4.87425 8.321 5.12425 8.375 5.36225C5.648 5.22925 3.235 3.92225 1.614 1.93125C1.331 2.42225 1.165 2.98425 1.165 3.58925C1.165 4.72525 1.75 5.73225 2.622 6.31525C2.095 6.30525 1.578 6.15225 1.14 5.91125C1.14 5.92125 1.14 5.93425 1.14 5.94725C1.14 7.54125 2.277 8.86525 3.768 9.17025C3.501 9.24325 3.21 9.27825 2.908 9.27825C2.698 9.27825 2.486 9.26625 2.287 9.22225C2.712 10.5213 3.918 11.4763 5.352 11.5073C4.236 12.3803 2.819 12.9063 1.285 12.9063C1.016 12.9063 0.758 12.8943 0.5 12.8613C1.953 13.7983 3.675 14.3333 5.532 14.3333C11.568 14.3333 14.868 9.33325 14.868 4.99925C14.868 4.85425 14.863 4.71425 14.856 4.57525C15.507 4.11325 16.054 3.53625 16.5 2.87225Z" fill="#B0B8BC"/>
</svg>
