<svg width="17" height="16" viewBox="0 0 17 16" fill="none" xmlns="http://www.w3.org/2000/svg">
<path fill-rule="evenodd" clip-rule="evenodd" d="M13.956 2.75875C14.915 2.81275 15.386 2.95475 15.82 3.72675C16.272 4.49775 16.5 5.82575 16.5 8.16475V8.16775V8.17275C16.5 10.5007 16.272 11.8387 15.821 12.6017C15.387 13.3737 14.916 13.5137 13.957 13.5787C12.998 13.6337 10.589 13.6667 8.502 13.6667C6.411 13.6667 4.001 13.6337 3.043 13.5777C2.086 13.5127 1.615 13.3727 1.177 12.6007C0.73 11.8377 0.5 10.4997 0.5 8.17175V8.16975V8.16675V8.16375C0.5 5.82575 0.73 4.49775 1.177 3.72675C1.615 2.95375 2.087 2.81275 3.044 2.75775C4.001 2.69375 6.411 2.66675 8.502 2.66675C10.589 2.66675 12.998 2.69375 13.956 2.75875ZM11.5 8.16675L6.5 5.16675V11.1667L11.5 8.16675Z" fill="#B0B8BC"/>
</svg>
